<svg width="340" height="292" viewBox="0 0 340 292" fill="none" xmlns="http://www.w3.org/2000/svg">
    <g clip-path="url(#clip0_0_1)">
        <path opacity="0.099" d="M164.977 289.241L6.61159 193.396C1.56825 190.492 -2.75258 185.735 2.16042 182.615L161.088 88.8121C163.471 87.2997 167.09 86.306 169.518 87.752L335.733 186.559C340.775 189.555 341.68 197.906 336.657 200.934L185.845 289.088C182.696 290.967 179.101 291.972 175.432 291.998C171.762 292.025 168.153 291.072 164.977 289.24V289.241Z" fill="#6862E6"/>
    </g>
    <g clip-path="url(#clip1_0_1)">
        <path d="M167.028 252.33L10.5398 159.771C5.5463 156.931 1.27625 152.372 6.12793 149.362L163.197 58.7762C165.538 57.3562 169.127 56.3621 171.525 57.7538L335.772 153.168C340.766 156.008 341.66 164.13 336.695 167.056L187.654 252.259C184.519 254.064 180.968 255.02 177.35 255.033C173.733 255.045 170.176 254.114 167.028 252.33Z" fill="#5B36A0"/>
        <path d="M167.028 248.056L10.5398 155.496C5.5463 152.656 1.27625 148.098 6.12793 145.087L163.197 54.5019C165.538 53.0818 169.127 52.0878 171.525 53.4794L335.772 148.893C340.766 151.733 341.66 159.856 336.695 162.781L187.654 247.985C184.519 249.79 180.968 250.746 177.35 250.758C173.733 250.771 170.176 249.839 167.028 248.056Z" fill="#6862E6"/>
        <path opacity="0.25" d="M179.909 125.945L149.054 143.568C149.054 143.568 196.62 172.622 206.352 176.712L224.141 151.151" fill="url(#paint0_linear_0_1)"/>
        <path opacity="0.25" d="M169.269 210.538L138.386 192.943L107.559 210.581C107.559 210.581 123.646 220.407 139.024 229.425C148.699 222.509 158.488 215.522 169.269 210.538Z" fill="url(#paint1_linear_0_1)"/>
        <path opacity="0.46" d="M102.722 101.861L83.1306 113.051C83.1306 113.051 84.7904 123.304 94.4795 127.408L120.171 110.963" fill="url(#paint2_linear_0_1)"/>
        <path d="M112.312 113.051C118.838 113.051 124.129 109.325 124.129 104.729C124.129 100.133 118.838 96.4078 112.312 96.4078C105.785 96.4078 100.494 100.133 100.494 104.729C100.494 109.325 105.785 113.051 112.312 113.051Z" fill="#68E1FD"/>
        <path d="M112.297 103.437C117.186 103.437 121.15 101.816 121.15 99.8159C121.15 97.816 117.186 96.1948 112.297 96.1948C107.408 96.1948 103.445 97.816 103.445 99.8159C103.445 101.816 107.408 103.437 112.297 103.437Z" fill="#974C26"/>
        <path d="M111.985 93.7239C111.985 92.0908 111.985 90.4577 111.801 88.8247L111.673 87.5466L111.588 86.723C111.57 86.4358 111.528 86.1507 111.46 85.871L111.29 84.8769C110.324 79.327 108.17 74.0518 104.977 69.4125C103.775 72.2748 103.171 75.3534 103.204 78.4583C103.204 79.3813 103.289 80.2901 103.36 81.1564V81.6818C103.36 82.122 103.516 82.6048 103.601 83.0024C103.966 84.665 104.44 86.3017 105.02 87.9016C105.542 89.3712 106.183 90.7959 106.935 92.1618C107.744 93.7097 108.609 95.2149 109.559 96.6918C110.283 97.842 110.978 98.8645 111.673 99.8443C111.883 97.8109 111.987 95.7681 111.985 93.7239ZM107.332 75.3909C107.375 75.18 107.375 74.9628 107.332 74.7519C107.559 74.9791 107.786 75.2205 107.999 75.4619C107.779 75.4194 107.552 75.4194 107.332 75.4619V75.3909Z" fill="#999A1C"/>
        <path d="M115.021 95.0304C115.926 93.6572 116.755 92.235 117.504 90.7702C117.717 90.3868 117.901 90.0175 118.1 89.6341L118.468 88.8815L118.823 88.1005C118.951 87.7881 119.093 87.4756 119.22 87.1774C121.405 81.9842 122.441 76.3792 122.256 70.7473C119.691 72.5021 117.518 74.7698 115.872 77.4074C115.39 78.1743 114.95 78.9553 114.539 79.7505L114.354 80.0913V80.2333L113.844 81.4688C113.258 83.0621 112.784 84.6944 112.425 86.3538C112.069 87.881 111.832 89.4335 111.716 90.9974C111.56 92.7299 111.475 94.4623 111.475 96.209C111.475 97.6291 111.475 98.8077 111.56 100.001C112.695 98.4101 113.915 96.7486 115.021 95.0304ZM121.036 77.0524C121.182 76.8897 121.289 76.6953 121.348 76.4844C121.348 76.811 121.476 77.1092 121.518 77.4074C121.38 77.2615 121.217 77.1413 121.036 77.0524Z" fill="#999A1C"/>
        <path d="M114.95 99.1059C115.872 98.6373 116.78 98.1545 117.688 97.6149L118.383 97.203L118.823 96.919L119.263 96.6066L119.774 96.2374C122.625 94.1397 124.991 91.4515 126.711 88.3561C124.763 88.4848 122.862 89.0064 121.121 89.8897C120.625 90.1454 120.142 90.4294 119.703 90.7276L119.49 90.8554L118.809 91.3666C117.969 92.0293 117.178 92.7506 116.44 93.5251C115.762 94.2363 115.136 94.9957 114.567 95.7972C113.915 96.7202 113.319 97.6291 112.737 98.5379C112.156 99.4467 111.914 99.958 111.56 100.625C112.624 100.185 113.801 99.6739 114.95 99.1059ZM124.001 91.3382C124.131 91.2947 124.251 91.2273 124.356 91.1394C124.356 91.3382 124.214 91.5228 124.129 91.7074C124.114 91.5808 124.07 91.4593 124.001 91.3524V91.3382Z" fill="#999A1C"/>
        <path d="M111.985 93.7239C111.985 92.0908 111.985 90.4577 111.801 88.8247L111.673 87.5466L111.588 86.723C111.57 86.4358 111.528 86.1507 111.46 85.871L111.29 84.8769C110.324 79.327 108.17 74.0518 104.977 69.4125C103.775 72.2748 103.171 75.3534 103.204 78.4583C103.204 79.3813 103.289 80.2901 103.36 81.1564V81.6818C103.36 82.122 103.516 82.6048 103.601 83.0024C103.966 84.665 104.44 86.3017 105.02 87.9016C105.542 89.3712 106.183 90.7959 106.935 92.1618C107.744 93.7097 108.609 95.2149 109.559 96.6918C110.283 97.842 110.978 98.8645 111.673 99.8443C111.883 97.8109 111.987 95.7681 111.985 93.7239ZM107.332 75.3909C107.375 75.18 107.375 74.9628 107.332 74.7519C107.559 74.9791 107.786 75.2205 107.999 75.4619C107.779 75.4194 107.552 75.4194 107.332 75.4619V75.3909Z" fill="#999A1C"/>
        <path d="M115.021 95.0304C115.926 93.6572 116.755 92.235 117.504 90.7702C117.717 90.3868 117.901 90.0175 118.1 89.6341L118.468 88.8815L118.823 88.1005C118.951 87.7881 119.093 87.4756 119.22 87.1774C121.405 81.9842 122.441 76.3792 122.256 70.7473C119.691 72.5021 117.518 74.7698 115.872 77.4074C115.39 78.1743 114.95 78.9553 114.539 79.7505L114.354 80.0913V80.2333L113.844 81.4688C113.258 83.0621 112.784 84.6944 112.425 86.3538C112.069 87.881 111.832 89.4335 111.716 90.9974C111.56 92.7299 111.475 94.4623 111.475 96.209C111.475 97.6291 111.475 98.8077 111.56 100.001C112.695 98.4101 113.915 96.7486 115.021 95.0304ZM121.036 77.0524C121.182 76.8897 121.289 76.6953 121.348 76.4844C121.348 76.811 121.476 77.1092 121.518 77.4074C121.38 77.2615 121.217 77.1413 121.036 77.0524Z" fill="#999A1C"/>
        <path d="M114.95 99.1059C115.872 98.6373 116.78 98.1545 117.688 97.6149L118.383 97.203L118.823 96.919L119.263 96.6066L119.774 96.2374C122.625 94.1397 124.991 91.4515 126.711 88.3561C124.763 88.4848 122.862 89.0064 121.121 89.8897C120.625 90.1454 120.142 90.4294 119.703 90.7276L119.49 90.8554L118.809 91.3666C117.969 92.0293 117.178 92.7506 116.44 93.5251C115.762 94.2363 115.136 94.9957 114.567 95.7972C113.915 96.7202 113.319 97.6291 112.737 98.5379C112.156 99.4467 111.914 99.958 111.56 100.625C112.624 100.185 113.801 99.6739 114.95 99.1059ZM124.001 91.3382C124.131 91.2947 124.251 91.2273 124.356 91.1394C124.356 91.3382 124.214 91.5228 124.129 91.7074C124.114 91.5808 124.07 91.4593 124.001 91.3524V91.3382Z" fill="#999A1C"/>
        <path d="M192.194 119.058L175.171 127.28C174.518 127.577 173.959 128.048 173.556 128.641C173.153 129.235 172.922 129.929 172.887 130.645C172.859 131.36 173.025 132.068 173.368 132.696C173.71 133.323 174.215 133.846 174.83 134.21L215.374 157.882C216.251 158.394 217.291 158.547 218.277 158.309C219.263 158.071 220.119 157.46 220.666 156.604L230.511 141.282" fill="#A1482D"/>
        <path d="M285.156 79.4097L148.869 0.823635C147.936 0.285719 146.877 0.00303376 145.8 0.00393893C144.723 0.00484411 143.665 0.289308 142.732 0.828792C141.799 1.36828 141.025 2.14381 140.486 3.07758C139.947 4.01136 139.663 5.07053 139.663 6.14886V87.9158C139.668 88.8068 139.907 89.6808 140.355 90.4508C140.803 91.2207 141.445 91.8596 142.216 92.3038L287.511 176.229C288.01 176.523 288.577 176.678 289.155 176.681C289.734 176.684 290.302 176.533 290.804 176.245C291.305 175.957 291.721 175.54 292.01 175.039C292.299 174.537 292.45 173.968 292.448 173.389V91.9914C292.447 89.4372 291.773 86.9284 290.492 84.719C289.212 82.5096 287.371 80.6781 285.156 79.4097Z" fill="#F47B56"/>
        <path d="M148.884 7.00088L281.056 83.1018C282.466 83.9165 283.637 85.0881 284.451 86.4988C285.265 87.9097 285.694 89.5101 285.695 91.1394V152.429C285.683 153.01 285.52 153.578 285.223 154.077C284.925 154.576 284.503 154.989 283.998 155.275C283.493 155.561 282.923 155.712 282.342 155.71C281.762 155.709 281.192 155.557 280.688 155.269L145.862 77.9612C145.36 77.6746 144.942 77.2618 144.648 76.7637C144.355 76.2656 144.196 75.6994 144.188 75.1211V9.699C144.192 9.15538 144.338 8.62224 144.611 8.15227C144.884 7.6823 145.275 7.29178 145.744 7.01928C146.214 6.74679 146.747 6.60176 147.29 6.59854C147.833 6.59531 148.368 6.73399 148.841 7.00088H148.884Z" fill="white"/>
        <path d="M204.497 122.608C206.059 122.307 207.046 120.614 206.702 118.828C206.359 117.041 204.814 115.836 203.252 116.138C201.69 116.439 200.703 118.131 201.047 119.918C201.39 121.704 202.935 122.909 204.497 122.608Z" fill="#AB643C"/>
        <path opacity="0.32" d="M184.406 90.1453L245.832 127.081L276.176 109.43L221.957 77.8476" fill="url(#paint3_linear_0_1)"/>
        <path d="M260.316 82.8036L193.911 42.2751C193.555 42.0694 193.151 41.9627 192.741 41.9662C192.33 41.9696 191.928 42.083 191.576 42.2946C191.225 42.5063 190.936 42.8084 190.74 43.1695C190.544 43.5307 190.449 43.9378 190.463 44.3484V67.4386C190.457 67.8566 190.559 68.2691 190.761 68.6352C190.962 69.0014 191.256 69.3084 191.612 69.5261L258.018 109.188C258.366 109.388 258.759 109.492 259.16 109.492C259.561 109.492 259.954 109.388 260.302 109.188C260.646 108.983 260.932 108.692 261.13 108.344C261.329 107.995 261.435 107.601 261.437 107.2L261.777 85.6721C261.806 85.1078 261.687 84.5456 261.43 84.0422C261.174 83.5387 260.79 83.1116 260.316 82.8036Z" fill="#E2AC00"/>
        <path d="M244.428 94.6753C246.811 98.0125 250.996 98.9355 253.762 96.777C256.528 94.6185 256.869 90.1311 254.486 86.8366C252.102 83.5421 247.917 82.5764 245.137 84.7491C242.356 86.9218 242.044 91.3524 244.428 94.6753Z" fill="white"/>
        <path d="M237.916 78.6855L210.82 62.3548C210.589 62.2573 210.33 62.2475 210.091 62.3271C209.853 62.4068 209.652 62.5705 209.525 62.7877C209.398 63.0049 209.355 63.2608 209.403 63.5077C209.45 63.7547 209.586 63.9758 209.785 64.1299L236.866 80.4463C237.096 80.5408 237.352 80.5496 237.587 80.4711C237.823 80.3926 238.022 80.2321 238.149 80.0188C238.276 79.8054 238.323 79.5535 238.28 79.3088C238.237 79.064 238.108 78.8429 237.916 78.6855Z" fill="#F2F2F2"/>
        <path d="M236.795 85.3171L199.457 62.8234C199.23 62.7427 198.98 62.7455 198.754 62.8313C198.529 62.9171 198.34 63.0804 198.223 63.292C198.105 63.5014 198.065 63.7458 198.109 63.9821C198.153 64.2184 198.279 64.4316 198.464 64.5843L235.76 87.0922C235.991 87.2015 236.255 87.2198 236.5 87.1436C236.744 87.0673 236.951 86.902 237.079 86.6804C237.226 86.4535 237.279 86.1779 237.226 85.9126C237.173 85.6472 237.019 85.4132 236.795 85.2603V85.3171Z" fill="#F2F2F2"/>
        <path d="M247.066 87.2768L180.689 46.7625C180.334 46.5568 179.93 46.4501 179.519 46.4536C179.109 46.457 178.707 46.5704 178.355 46.782C178.003 46.9937 177.714 47.2958 177.518 47.6569C177.323 48.0181 177.227 48.4252 177.242 48.8358V71.9118C177.235 72.3298 177.338 72.7423 177.539 73.1084C177.741 73.4746 178.034 73.7816 178.391 73.9993L244.796 113.605C245.148 113.811 245.548 113.92 245.955 113.918C246.362 113.917 246.762 113.806 247.111 113.597C247.461 113.388 247.748 113.088 247.942 112.73C248.136 112.371 248.231 111.967 248.215 111.56L248.57 90.0459C248.588 89.4825 248.459 88.924 248.195 88.4259C247.931 87.9278 247.542 87.5072 247.066 87.2058V87.2768Z" fill="#F47B56"/>
        <path d="M231.178 99.1627C233.561 102.486 237.746 103.423 240.512 101.25C243.279 99.0775 243.619 94.6043 241.236 91.3098C238.852 88.0153 234.668 87.0496 231.887 89.2223C229.107 91.395 228.794 95.8256 231.178 99.1627Z" fill="white"/>
        <path d="M224.652 83.1586L197.556 66.8422C197.324 66.717 197.052 66.6868 196.798 66.758C196.543 66.8292 196.326 66.9962 196.192 67.224C196.058 67.4517 196.018 67.7226 196.079 67.9797C196.14 68.2368 196.299 68.4602 196.521 68.603L223.602 84.9337C223.834 85.0397 224.097 85.0563 224.341 84.9803C224.584 84.9043 224.791 84.7411 224.922 84.5219C224.996 84.4101 225.048 84.2846 225.074 84.1526C225.101 84.0207 225.101 83.8848 225.074 83.7529C225.048 83.621 224.996 83.4956 224.921 83.3839C224.846 83.2721 224.75 83.1763 224.638 83.1018L224.652 83.1586Z" fill="#F2F2F2"/>
        <path d="M223.531 89.8329L186.207 67.2966C185.976 67.1873 185.712 67.169 185.468 67.2452C185.223 67.3215 185.017 67.4868 184.888 67.7084C184.741 67.9354 184.688 68.2109 184.741 68.4763C184.794 68.7416 184.949 68.9757 185.172 69.1285L222.467 91.5654C222.699 91.6747 222.963 91.693 223.207 91.6167C223.451 91.5405 223.658 91.3752 223.787 91.1536C223.934 90.9266 223.987 90.6511 223.934 90.3857C223.881 90.1204 223.726 89.8863 223.503 89.7335L223.531 89.8329Z" fill="#F2F2F2"/>
        <path d="M230.412 89.9891L164.02 49.489C163.666 49.2784 163.261 49.1677 162.848 49.1688C162.436 49.1699 162.032 49.2827 161.678 49.4953C161.325 49.7079 161.035 50.0123 160.841 50.3762C160.646 50.7401 160.554 51.15 160.573 51.5623V74.6383C160.572 75.055 160.678 75.4649 160.882 75.8282C161.086 76.1916 161.38 76.4959 161.736 76.7116L228.142 116.445C228.494 116.65 228.895 116.758 229.302 116.756C229.71 116.754 230.11 116.643 230.46 116.434C230.81 116.226 231.098 115.927 231.294 115.569C231.49 115.212 231.587 114.808 231.575 114.4L231.915 92.886C231.932 92.3244 231.804 91.7679 231.543 91.2703C231.282 90.7728 230.897 90.3511 230.426 90.0459L230.412 89.9891Z" fill="#68E1FD"/>
        <path d="M230.412 89.9891L164.02 49.489C163.666 49.2784 163.261 49.1677 162.848 49.1688C162.436 49.1699 162.032 49.2827 161.678 49.4953C161.325 49.7079 161.035 50.0123 160.841 50.3762C160.646 50.7401 160.554 51.15 160.573 51.5623V74.6383C160.572 75.055 160.678 75.4649 160.882 75.8282C161.086 76.1916 161.38 76.4959 161.736 76.7116L228.142 116.445C228.494 116.65 228.895 116.758 229.302 116.756C229.71 116.754 230.11 116.643 230.46 116.434C230.81 116.226 231.098 115.927 231.294 115.569C231.49 115.212 231.587 114.808 231.575 114.4L231.915 92.886C231.932 92.3244 231.804 91.7679 231.543 91.2703C231.282 90.7728 230.897 90.3511 230.426 90.0459L230.412 89.9891Z" fill="#68E1FD"/>
        <path d="M214.509 101.875C216.892 105.212 221.077 106.135 223.858 103.963C226.638 101.79 226.95 97.3308 224.567 94.0221C222.184 90.7134 217.999 89.7619 215.218 91.9346C212.438 94.1073 212.154 98.5379 214.509 101.875Z" fill="white"/>
        <path d="M207.997 85.871L180.902 69.5829C180.67 69.4854 180.411 69.4756 180.173 69.5552C179.934 69.6349 179.733 69.7986 179.606 70.0158C179.48 70.233 179.436 70.4889 179.484 70.7358C179.532 70.9828 179.668 71.2039 179.866 71.358L206.948 87.6744C207.179 87.7872 207.444 87.8073 207.689 87.7308C207.934 87.6542 208.141 87.4867 208.267 87.2626C208.342 87.1508 208.394 87.0253 208.42 86.8934C208.446 86.7614 208.446 86.6256 208.42 86.4936C208.393 86.3617 208.341 86.2363 208.266 86.1246C208.191 86.0129 208.095 85.917 207.983 85.8426L207.997 85.871Z" fill="#F2F2F2"/>
        <path d="M206.863 92.5169L169.539 70.0231C169.307 69.9257 169.048 69.9158 168.81 69.9955C168.571 70.0751 168.37 70.2388 168.243 70.456C168.116 70.6732 168.073 70.9291 168.121 71.1761C168.169 71.423 168.304 71.6441 168.503 71.7982L205.827 94.2919C206.06 94.3999 206.324 94.4175 206.57 94.3413C206.815 94.2651 207.023 94.1005 207.154 93.8794C207.284 93.6584 207.328 93.3966 207.277 93.1448C207.226 92.8931 207.083 92.6693 206.877 92.5169H206.863Z" fill="#F2F2F2"/>
        <path d="M143.28 87.7312C138.99 91.427 135.746 96.1872 133.875 101.534C130.569 110.665 138.769 125.59 138.769 125.59L151.622 115.408" fill="#FF8F6F"/>
        <path d="M141.89 208.465L138.4 206.548L139.322 201.549C139.322 201.549 144.514 202.046 144.997 203.892" fill="#003B94"/>
        <path d="M143.167 208.394C143.961 207.911 144.77 207.485 145.592 207.059C147.607 205.951 150.515 204.801 151.763 202.728C152.015 202.31 152.134 201.825 152.104 201.338C152.073 200.851 151.895 200.384 151.593 200.001C149.763 197.786 145.777 201.421 143.72 198.964C143.323 198.482 143.138 190.813 143.138 190.813L135.364 192.901C135.364 192.901 134.045 208.337 134.187 209.288C134.329 210.24 137.024 211.12 137.024 211.12C137.821 210.95 138.58 210.638 139.265 210.197C140.088 209.615 139.265 202.373 140.386 203.381C141.507 204.389 141.876 208.365 141.876 208.365C142.304 208.423 142.737 208.433 143.167 208.394Z" fill="#F47B56"/>
        <path d="M156.743 215.934L153.253 214.031L154.161 209.047C154.161 209.047 159.353 209.544 159.835 211.376" fill="#003B94"/>
        <path d="M158.048 215.849C158.842 215.352 159.665 214.926 160.474 214.5C162.488 213.392 165.396 212.256 166.645 210.24C166.896 209.819 167.014 209.332 166.984 208.843C166.953 208.354 166.776 207.885 166.474 207.499C164.644 205.284 160.658 208.919 158.615 206.477C158.204 205.994 158.02 198.311 158.02 198.311L150.245 200.413C150.245 200.413 148.912 215.906 149.068 216.815C149.224 217.723 151.905 218.632 151.905 218.632C152.702 218.471 153.462 218.163 154.147 217.723C154.955 217.127 154.147 209.885 155.253 210.907C156.36 211.93 156.757 215.877 156.757 215.877C157.187 215.924 157.621 215.914 158.048 215.849Z" fill="#F47B56"/>
        <path d="M131.406 165.763L129.122 196.408C129.122 196.408 132.768 201.45 145.011 198.652L145.124 177.99" fill="#3E2928"/>
        <path d="M145.536 171.827C145.28 174.468 145.536 203.58 145.536 203.58C145.536 203.58 148.926 209.927 163.666 203.58L163.453 178.842" fill="#3E2928"/>
        <path d="M130.257 175.889C131.25 176.584 131.605 173.048 132.655 173.616C136.476 175.836 140.536 177.617 144.755 178.927H144.841C145.05 178.842 145.284 178.842 145.493 178.927C145.598 178.967 145.694 179.028 145.774 179.106C145.855 179.184 145.918 179.278 145.961 179.382C148.564 180.152 151.213 180.759 153.891 181.2C157.339 181.753 160.176 179.211 163.708 179.027C163.708 165.494 163.708 126.982 158.034 118.76L141.01 113.079C140.925 114.499 132.74 123.985 132.938 135.559C132.909 145.402 132.322 155.235 131.179 165.011C131.108 165.636 130.257 175.15 130.257 175.889Z" fill="#3E2928"/>
        <path d="M159.58 103.181L158.02 118.703C158.02 118.703 145.252 119.214 139.833 115.437V102.244" fill="#FF8F6F"/>
        <path d="M175.752 92.9571L174.447 94.7321C175.144 93.2929 175.755 91.8134 176.277 90.3015C176.646 89.2791 174.986 88.8815 174.632 89.8897L174.433 90.4294C174.589 89.8755 174.745 89.3217 174.887 88.7679C174.941 88.5476 174.906 88.3146 174.789 88.1202C174.672 87.9257 174.483 87.7859 174.263 87.7312C174.043 87.6766 173.81 87.7118 173.616 87.829C173.421 87.9461 173.282 88.1357 173.227 88.3561C172.875 89.7987 172.444 91.2209 171.936 92.6162C172.218 91.3806 172.421 90.1285 172.546 88.8673C172.66 87.788 170.943 87.8306 170.844 88.8673C170.703 90.3057 170.447 91.7303 170.078 93.1275C170.075 92.6514 170.032 92.1764 169.95 91.7074C169.936 91.585 169.896 91.467 169.833 91.3616C169.769 91.2562 169.683 91.1658 169.581 91.0968C169.581 90.9122 169.482 90.7276 169.425 90.5288C169.356 90.3394 169.223 90.1797 169.05 90.0763C168.877 89.9729 168.674 89.9321 168.475 89.9607C168.277 89.9908 168.095 90.0899 167.963 90.2405C167.831 90.3912 167.756 90.5838 167.751 90.7844L167.638 97.1746C167.333 97.841 166.932 98.4583 166.446 99.0065C167.269 99.5681 168.06 100.175 168.815 100.824C169.497 101.393 170.146 102 170.759 102.642C171.298 101.96 171.823 101.222 172.333 100.569L172.504 100.384C174.017 98.1213 175.587 95.9061 177.213 93.7381C177.88 92.9287 176.391 92.0908 175.752 92.9571Z" fill="#FFB5A9"/>
        <path d="M151.536 89.0235C151.536 89.0235 157.537 90.6424 160.048 94.5049C161.57 97.1811 162.912 99.9564 164.063 102.812L168.503 95.9108C168.503 95.9108 173.894 97.5723 176.022 100.171C176.022 100.171 169.638 114.144 164.063 115.337C158.488 116.53 152.586 107.143 152.586 107.143C152.586 107.143 151.366 111.063 151.607 106.874" fill="#FF8F6F"/>
        <path d="M155.338 103.963C153.6 102.536 152.285 100.66 151.536 98.5379C150.827 96.0812 151.721 93.9227 152.558 91.6364C153.477 89.3749 154.009 86.9746 154.132 84.5361C154.128 82.1647 154.005 79.7949 153.764 77.4358C153.749 77.3322 153.749 77.2271 153.764 77.1234C152.969 74.4253 151.324 72.139 148.089 71.8692C139.705 71.1592 139.223 80.3895 139.294 84.2379C139.365 88.0863 139.748 90.5714 136.967 92.1476C134.187 93.7239 132.172 97.8279 134.839 101.236C137.506 104.644 135.109 103.352 133.336 106.334C131.562 109.316 132.03 113.022 135.662 114.372C139.294 115.721 156.175 113.193 157.722 111.631C158.274 111.002 158.559 110.181 158.516 109.345C158.136 107.246 157.013 105.356 155.353 104.019L155.338 103.963Z" fill="#007F68"/>
        <path d="M163.58 27.2793C164.998 29.3294 165.818 31.7336 165.95 34.2234C166.115 35.3609 165.841 36.5188 165.184 37.4611C164.902 37.7691 164.527 37.9752 164.116 38.0471C163.706 38.119 163.283 38.0528 162.914 37.8588C162.454 37.6722 162.039 37.3917 161.694 37.0351C161.384 36.7461 161.121 36.4108 160.913 36.0411L160.687 35.6151C160.629 35.7277 160.557 35.8326 160.474 35.9275C160.253 36.092 159.994 36.1993 159.722 36.2399C159.244 36.3389 158.748 36.2842 158.303 36.0837C157.296 35.6425 156.457 34.8913 155.906 33.9394C155.253 32.8991 154.89 31.7026 154.856 30.4745C154.786 29.983 154.826 29.4823 154.974 29.0083C155.121 28.5343 155.371 28.099 155.707 27.7337C155.996 27.4567 156.363 27.2743 156.758 27.2109C157.154 27.1475 157.559 27.206 157.92 27.3787C158.282 27.5341 158.617 27.7449 158.913 28.0036C159.163 28.2134 159.383 28.4571 159.566 28.7278L159.736 29.026V28.2024L161.566 28.9124L161.736 34.053C161.749 34.4239 161.868 34.7833 162.077 35.0896C162.25 35.3812 162.507 35.6138 162.814 35.7571C163.694 36.0979 164.105 35.3311 164.049 33.4708C163.952 31.6158 163.337 29.8251 162.275 28.3018C161.33 26.7491 159.913 25.54 158.232 24.851C157.625 24.5452 156.94 24.4278 156.265 24.5138C155.59 24.5998 154.956 24.8853 154.445 25.3338C153.906 25.8932 153.499 26.566 153.253 27.3031C153.008 28.0402 152.93 28.823 153.026 29.594C153.136 31.5476 153.768 33.4359 154.856 35.0612C155.719 36.6781 157.09 37.9656 158.757 38.725C159.333 38.9638 159.95 39.0845 160.573 39.08C160.983 39.1053 161.393 39.0272 161.765 38.8528L162.134 38.654L163.226 40.7131L163.056 40.8409C162.882 40.9376 162.702 41.023 162.517 41.0965C162.222 41.2227 161.912 41.3087 161.594 41.3521C161.195 41.4094 160.789 41.4094 160.389 41.3521C159.859 41.2852 159.339 41.1516 158.842 40.9545C157.437 40.3527 156.189 39.4342 155.196 38.2706C154.011 36.9676 153.052 35.4748 152.359 33.8542C151.669 32.3034 151.274 30.6369 151.196 28.9408C151.095 27.5173 151.384 26.0933 152.033 24.8226C152.571 23.7567 153.502 22.9419 154.629 22.5505C155.806 22.1557 157.088 22.2216 158.218 22.7351C160.431 23.6672 162.3 25.2652 163.566 27.3077L163.58 27.2793ZM159.566 33.7832C159.72 33.5835 159.831 33.3548 159.895 33.1108C159.958 32.8668 159.972 32.6125 159.935 32.3631C159.915 31.7687 159.749 31.1884 159.452 30.6733C159.2 30.231 158.812 29.8823 158.346 29.6792C158.168 29.582 157.964 29.5433 157.762 29.5688C157.561 29.5943 157.373 29.6826 157.225 29.8212C157.066 29.9985 156.948 30.2088 156.879 30.4371C156.81 30.6654 156.793 30.9061 156.828 31.1419C156.845 31.745 157.021 32.3329 157.339 32.846C157.602 33.3101 158.011 33.6744 158.502 33.8826C158.673 33.9712 158.868 34.0038 159.059 33.9758C159.25 33.9478 159.427 33.8606 159.566 33.7264" fill="#F47B56"/>
        <path d="M271.325 126.172C272.746 128.22 273.567 130.626 273.694 133.116C273.858 134.254 273.584 135.411 272.928 136.354C272.645 136.66 272.269 136.863 271.858 136.932C271.447 137.002 271.025 136.933 270.658 136.737C270.199 136.556 269.784 136.28 269.438 135.928C269.131 135.631 268.868 135.292 268.658 134.92L268.431 134.494C268.373 134.606 268.302 134.711 268.218 134.806C267.998 134.975 267.74 135.087 267.466 135.133C267.011 135.217 266.542 135.162 266.118 134.977C265.113 134.533 264.277 133.776 263.735 132.818C263.07 131.783 262.702 130.584 262.671 129.353C262.601 128.863 262.64 128.363 262.785 127.89C262.93 127.416 263.176 126.98 263.508 126.612C263.795 126.332 264.162 126.147 264.558 126.083C264.955 126.02 265.361 126.081 265.721 126.257C266.09 126.399 266.427 126.611 266.714 126.882C266.965 127.096 267.189 127.339 267.381 127.606L267.551 127.905V127.095L269.367 127.791L269.551 132.932C269.567 133.296 269.679 133.649 269.878 133.954C270.052 134.25 270.315 134.484 270.63 134.622C271.552 134.977 271.92 134.21 271.864 132.335C271.777 130.485 271.167 128.697 270.105 127.18C269.155 125.637 267.746 124.43 266.076 123.73C265.467 123.421 264.781 123.3 264.103 123.384C263.426 123.467 262.789 123.751 262.274 124.198C261.735 124.758 261.328 125.431 261.083 126.168C260.837 126.905 260.759 127.687 260.855 128.459C260.959 130.413 261.591 132.303 262.685 133.926C263.583 135.501 264.967 136.741 266.629 137.462C267.204 137.705 267.821 137.831 268.445 137.831C268.853 137.854 269.261 137.781 269.636 137.618L270.005 137.405L271.098 139.464L270.927 139.592C270.753 139.689 270.573 139.774 270.388 139.847C270.094 139.974 269.784 140.06 269.466 140.103C269.062 140.16 268.651 140.16 268.246 140.103C267.721 140.034 267.206 139.901 266.714 139.705C265.31 139.1 264.063 138.182 263.068 137.021C261.879 135.716 260.92 134.218 260.231 132.591C259.534 131.047 259.139 129.384 259.068 127.692C258.965 126.273 259.255 124.853 259.905 123.588C260.445 122.517 261.374 121.694 262.501 121.287C263.684 120.907 264.966 120.972 266.104 121.472C268.285 122.465 270.108 124.106 271.325 126.172ZM267.296 132.662C267.457 132.466 267.574 132.238 267.64 131.993C267.706 131.748 267.719 131.492 267.679 131.242C267.663 130.647 267.497 130.065 267.196 129.552C266.955 129.103 266.57 128.749 266.104 128.544C265.923 128.449 265.717 128.412 265.515 128.438C265.312 128.463 265.122 128.55 264.969 128.686C264.812 128.865 264.694 129.075 264.624 129.302C264.553 129.53 264.53 129.77 264.558 130.006C264.589 130.605 264.769 131.186 265.083 131.696C265.345 132.164 265.754 132.533 266.246 132.747C266.415 132.835 266.608 132.867 266.796 132.839C266.984 132.811 267.159 132.724 267.296 132.591" fill="#F47B56"/>
        <path opacity="0.25" d="M89.4718 165.11L58.5885 147.516L27.7051 165.139C27.7051 165.139 44.8846 175.889 60.2624 184.906C70.0367 178.004 78.7045 170.109 89.4718 165.11Z" fill="url(#paint4_linear_0_1)"/>
        <path fill-rule="evenodd" clip-rule="evenodd" d="M33.6917 115.692V153.949L63.4543 171.004L97.0756 151.108V112.866" fill="black"/>
        <path fill-rule="evenodd" clip-rule="evenodd" d="M33.6917 115.692V153.949L63.4543 171.004L97.0756 151.108V112.866" fill="#FF9271"/>
        <path d="M63.4543 132.761V171.004L97.0756 151.108V112.866L63.4543 132.761Z" fill="#DF5C34"/>
        <path d="M33.6917 115.692L68.2351 95.9818L97.0756 112.866L63.4543 132.761L33.6917 115.692Z" fill="#F47B56"/>
        <path d="M64.2488 104.772C67.7488 104.529 71.2448 105.298 74.321 106.987C76.0942 108.024 77.0589 109.103 77.1582 110.239C77.1979 110.857 77.0445 111.472 76.7191 111.999C76.3937 112.526 75.9125 112.938 75.3424 113.179C74.691 113.577 73.976 113.861 73.2286 114.017C72.6103 114.161 71.9766 114.227 71.3419 114.215H70.6609C70.7184 114.372 70.7611 114.534 70.7886 114.698C70.7592 115.088 70.6324 115.464 70.4198 115.792C70.0509 116.383 69.5385 116.872 68.9302 117.212C67.4927 118.062 65.8471 118.494 64.1778 118.461C62.4775 118.492 60.8008 118.06 59.3262 117.212C58.7367 116.95 58.2245 116.541 57.8393 116.024C57.4541 115.506 57.2089 114.898 57.1273 114.258C57.1353 113.662 57.3096 113.08 57.6305 112.579C57.9513 112.077 58.406 111.675 58.9431 111.418C59.4478 111.123 59.9926 110.903 60.5604 110.765C61.0222 110.629 61.4983 110.548 61.979 110.523H62.4755L61.5676 109.969L64.1211 108.379L70.0367 111.872C70.49 112.117 70.997 112.245 71.5121 112.245C72.0272 112.245 72.5342 112.117 72.9875 111.872C74.2358 111.077 73.7819 110.055 71.6398 108.777C69.3528 107.518 66.7535 106.941 64.1495 107.115C61.4007 107.146 58.7108 107.916 56.3612 109.345C54.2191 110.765 53.1552 112.284 53.1693 114.144C53.1835 116.005 54.3042 117.595 56.5173 118.887C58.9334 120.211 61.6681 120.84 64.419 120.705C67.166 120.752 69.872 120.034 72.2356 118.632C73.0512 118.145 73.784 117.532 74.4061 116.814C74.8172 116.37 75.127 115.842 75.314 115.266L75.4417 114.684L78.818 114.883V115.181C78.7526 115.46 78.6721 115.735 78.5768 116.005C78.4205 116.429 78.2258 116.837 77.9952 117.226C77.6441 117.74 77.24 118.216 76.7894 118.646C76.1941 119.222 75.5377 119.732 74.8317 120.165C72.8024 121.38 70.5576 122.19 68.2209 122.551C65.6704 122.991 63.0673 123.034 60.5036 122.679C58.1741 122.406 55.922 121.673 53.8787 120.52C52.2326 119.639 50.9143 118.249 50.1193 116.558C49.7962 115.822 49.6293 115.027 49.6293 114.222C49.6293 113.418 49.7962 112.623 50.1193 111.886C50.8978 110.161 52.2045 108.729 53.8503 107.797C56.9804 105.866 60.5727 104.816 64.2488 104.758V104.772ZM67.5541 114.187C67.4984 113.874 67.3654 113.58 67.1671 113.332C66.9689 113.084 66.7118 112.89 66.4193 112.767C65.7005 112.365 64.8872 112.164 64.0643 112.185C63.2917 112.155 62.5273 112.352 61.8655 112.753C61.5974 112.882 61.3705 113.083 61.2102 113.334C61.0499 113.585 60.9624 113.875 60.9576 114.173C60.9975 114.481 61.1165 114.774 61.3029 115.023C61.4894 115.272 61.7369 115.468 62.0215 115.593C62.7573 116.006 63.5895 116.217 64.4332 116.203C65.2452 116.215 66.045 116.004 66.7455 115.593C67.018 115.475 67.2466 115.275 67.3993 115.02C67.552 114.765 67.621 114.469 67.5967 114.173" fill="#3E2928"/>
    </g>
    <defs>
        <linearGradient id="paint0_linear_0_1" x1="198.415" y1="143.893" x2="188.806" y2="157.392" gradientUnits="userSpaceOnUse">
            <stop stop-color="#7F3500"/>
            <stop offset="1" stop-color="#231F20" stop-opacity="0"/>
        </linearGradient>
        <linearGradient id="paint1_linear_0_1" x1="158.305" y1="204.564" x2="137.703" y2="227.376" gradientUnits="userSpaceOnUse">
            <stop offset="0.03" stop-color="#7F3500"/>
            <stop offset="1" stop-color="#231F20" stop-opacity="0"/>
        </linearGradient>
        <linearGradient id="paint2_linear_0_1" x1="112.916" y1="107.91" x2="97.2478" y2="124.862" gradientUnits="userSpaceOnUse">
            <stop stop-color="#843C09" stop-opacity="0.85"/>
            <stop offset="1" stop-color="#231F20" stop-opacity="0"/>
        </linearGradient>
        <linearGradient id="paint3_linear_0_1" x1="258.88" y1="107.138" x2="249.597" y2="99.7223" gradientUnits="userSpaceOnUse">
            <stop stop-color="white" stop-opacity="0"/>
            <stop offset="0.99" stop-color="#DC841E"/>
        </linearGradient>
        <linearGradient id="paint4_linear_0_1" x1="79.1275" y1="156.758" x2="58.2585" y2="179.963" gradientUnits="userSpaceOnUse">
            <stop offset="0.03" stop-color="#7F3500"/>
            <stop offset="1" stop-color="#231F20" stop-opacity="0"/>
        </linearGradient>
        <clipPath id="clip0_0_1">
            <rect width="340" height="147" fill="white" transform="translate(0 145)"/>
        </clipPath>
        <clipPath id="clip1_0_1">
            <rect width="336" height="255" fill="white" transform="translate(4)"/>
        </clipPath>
    </defs>
</svg>
